<svg xmlns="http://www.w3.org/2000/svg" viewBox="0 0 100 100" width="1024" height="1024" role="img" aria-label="Nade">
  <!-- Generated by scripts/build-icon.mjs - do not hand-edit. -->
  <rect width="100" height="100" fill="#f2ece0"/>
  <g fill="none" stroke="#d2543f" stroke-width="7" stroke-linecap="butt">
    <path d="M0.07 55.66L0.81 54.95L1.57 54.25L2.33 53.55L3.10 52.86L3.87 52.18L4.65 51.51L5.44 50.84L6.23 50.19L7.04 49.54L7.85 48.90L8.66 48.27L9.49 47.65L10.32 47.04L11.16 46.44L12.00 45.85L12.86 45.28L13.72 44.71L14.59 44.16L15.47 43.62L16.36 43.09L17.25 42.58L18.15 42.08L19.06 41.59L19.98 41.12"/>
    <path d="M22.69 39.84L23.64 39.43L24.59 39.04L25.55 38.67L26.52 38.31L27.49 37.98L28.47 37.66L29.46 37.36L30.45 37.08L31.45 36.83L32.46 36.59L33.47 36.38L34.48 36.19L35.50 36.02L36.52 35.87L37.54 35.75L38.57 35.64L39.59 35.56L40.62 35.51L41.65 35.48L42.68 35.47L43.72 35.48L44.75 35.52L45.77 35.58L46.80 35.67"/>
    <path d="M49.78 36.04L50.79 36.21L51.81 36.41L52.82 36.62L53.82 36.86L54.83 37.08L55.84 37.28L56.85 37.47L57.87 37.64L58.89 37.78L59.91 37.91L60.94 38.02L61.96 38.11L62.99 38.18L64.02 38.23L65.05 38.25L66.08 38.26L67.12 38.24L68.15 38.20L69.17 38.14L70.20 38.06L71.23 37.96L72.25 37.83L73.27 37.69L74.29 37.52"/>
    <path d="M77.23 36.92L78.23 36.67L79.23 36.41L80.22 36.13L81.21 35.83L82.19 35.52L83.17 35.19L84.14 34.85L85.11 34.50L86.07 34.13L87.03 33.74L87.98 33.35L88.93 32.94L89.87 32.53L90.81 32.10L91.74 31.67L92.67 31.22L93.60 30.77L94.52 30.31L95.44 29.84L96.36 29.36L97.27 28.88L98.17 28.39L99.08 27.90L99.98 27.40"/>
    <path d="M6.29 72.15L6.16 72.32L6.82 71.60L7.49 70.88L8.17 70.17L8.85 69.47L9.54 68.77L10.24 68.08L10.94 67.40L11.65 66.72L12.37 66.05L13.09 65.39L13.82 64.73L14.56 64.08L15.31 63.45L16.06 62.82L16.82 62.20L17.59 61.59L18.37 60.99L19.15 60.40L19.95 59.82L20.75 59.26L21.56 58.71L22.38 58.17L23.21 57.64"/>
    <path d="M25.80 56.13L26.67 55.67L27.54 55.23L28.43 54.80L29.32 54.40L30.23 54.02L31.14 53.66L32.06 53.32L32.99 53.01L33.93 52.72L34.88 52.46L35.83 52.23L36.79 52.03L37.76 51.86L38.73 51.72L39.70 51.61L40.68 51.53L41.66 51.48L42.64 51.47L43.62 51.49L44.60 51.54L45.58 51.62L46.56 51.74L47.53 51.89L48.49 52.06"/>
    <path d="M51.42 52.72L52.38 52.91L53.35 53.10L54.31 53.27L55.28 53.42L56.25 53.57L57.22 53.70L58.20 53.82L59.17 53.93L60.15 54.02L61.13 54.09L62.11 54.16L63.09 54.20L64.07 54.24L65.05 54.26L66.03 54.26L67.01 54.25L67.99 54.22L68.97 54.18L69.95 54.13L70.93 54.06L71.91 53.97L72.89 53.87L73.86 53.76L74.83 53.63"/>
    <path d="M77.79 53.14L78.76 52.96L79.72 52.76L80.68 52.54L81.63 52.31L82.58 52.07L83.53 51.82L84.48 51.56L85.42 51.28L86.35 50.99L87.29 50.69L88.22 50.38L89.15 50.05L90.07 49.72L90.99 49.38L91.90 49.03L92.82 48.66L93.72 48.29L94.63 47.91L95.53 47.52L96.43 47.12L97.32 46.72L98.21 46.31L99.10 45.89L99.98 45.46"/>
  </g>
</svg>
